HIERARCHY
ROOT hip
{
	OFFSET 0.000000 0.000000 0.000000
	CHANNELS 6 Xposition Yposition Zposition Xrotation Zrotation Yrotation 
	JOINT abdomen
	{
		OFFSET 0.000000 3.422050 0.000000
		CHANNELS 3 Xrotation Zrotation Yrotation 
		JOINT chest
		{
			OFFSET 0.000000 8.486693 -0.684411
			CHANNELS 3 Xrotation Zrotation Yrotation 
			JOINT neck
			{
				OFFSET 0.000000 10.266162 -0.273764
				CHANNELS 3 Xrotation Zrotation Yrotation 
				JOINT head
				{
					OFFSET 0.000000 3.148285 0.000000
					CHANNELS 3 Xrotation Zrotation Yrotation 
					End Site
					{
						OFFSET 0.000000 3.148289 0.000000
					}
				}
			}
			JOINT lCollar
			{
				OFFSET 3.422053 6.707223 -0.821293
				CHANNELS 3 Yrotation Zrotation Xrotation 
				JOINT lShldr
				{
					OFFSET 3.285171 0.000000 0.000000
					CHANNELS 3 Zrotation Yrotation Xrotation 
					JOINT lForeArm
					{
						OFFSET 10.129278 0.000000 0.000000
						CHANNELS 3 Yrotation Zrotation Xrotation 
						JOINT lHand
						{
							OFFSET 8.486692 0.000000 0.000000
							CHANNELS 3 Zrotation Yrotation Xrotation 
							End Site
							{
								OFFSET 4.106464 0.000000 0.000000
							}
						}
					}
				}
			}
			JOINT rCollar
			{
				OFFSET -3.558935 6.707223 -0.821293
				CHANNELS 3 Yrotation Zrotation Xrotation 
				JOINT rShldr
				{
					OFFSET -3.148289 0.000000 0.000000
					CHANNELS 3 Zrotation Yrotation Xrotation 
					JOINT rForeArm
					{
						OFFSET -10.266159 0.000000 0.000000
						CHANNELS 3 Yrotation Zrotation Xrotation 
						JOINT rHand
						{
							OFFSET -8.349810 0.000000 0.000000
							CHANNELS 3 Zrotation Yrotation Xrotation 
							End Site
							{
								OFFSET -4.106464 0.000000 0.000000
							}
						}
					}
				}
			}
		}
	}
	JOINT lThigh
	{
		OFFSET 5.338403 -1.642589 1.368821
		CHANNELS 3 Xrotation Zrotation Yrotation 
		JOINT lShin
		{
			OFFSET -2.053232 -20.121670 0.000000
			CHANNELS 3 Xrotation Zrotation Yrotation 
			JOINT lFoot
			{
				OFFSET 0.000000 -19.300380 -1.231939
				CHANNELS 3 Xrotation Yrotation Zrotation 
				End Site
				{
					OFFSET 0.000000 -2.463878 4.653993
				}
			}
		}
	}
	JOINT rThigh
	{
		OFFSET -5.338403 -1.642589 1.368821
		CHANNELS 3 Xrotation Zrotation Yrotation 
		JOINT rShin
		{
			OFFSET 2.053232 -20.121670 0.000000
			CHANNELS 3 Xrotation Zrotation Yrotation 
			JOINT rFoot
			{
				OFFSET 0.000000 -19.300380 -1.231939
				CHANNELS 3 Xrotation Yrotation Zrotation 
				End Site
				{
					OFFSET 0.000000 -2.463878 4.653993
				}
			}
		}
	}
}
MOTION
Frames: 8
Frame Time: 0.049897
0.000000 43.528500 0.000000 0.000000 0.000000 0.000000 0.000000 0.000000 0.000000 0.000000 0.000000 0.000000 0.000000 0.000000 0.000000 0.000000 0.000000 0.000000 0.000000 0.000000 0.000000 0.000000 0.000000 0.000000 0.000000 0.000000 0.000000 0.000000 0.000000 0.000000 0.000000 0.000000 0.000000 0.000000 0.000000 0.000000 0.000000 0.000000 0.000000 0.000000 0.000000 0.000000 0.000000 0.000000 0.000000 0.000000 0.000000 0.000000 0.000000 0.000000 0.000000 0.000000 0.000000 0.000000 0.000000 0.000000 0.000000 0.000000 0.000000 0.000000 
8.773937 14.701630 16.072985 0.012387 -2.991333 -157.066345 15.906472 -2.440089 32.234177 36.594723 9.547375 -21.846674 -38.001648 0.000000 0.000000 -31.002779 0.000000 0.000000 -14.685571 -18.896608 -17.789181 -37.258759 -12.318573 4.120556 -27.397099 26.099785 5.701723 -15.545046 -6.309611 1.655651 28.417177 20.648281 -12.944782 40.027992 31.194057 15.050947 28.629374 -17.245958 4.827735 -33.000099 0.000000 0.000000 -52.064003 15.834167 41.418690 158.276001 31.057590 -9.324400 37.204029 -12.539549 4.753003 -52.062614 -15.838800 -41.420849 158.270248 -31.054163 9.321651 37.203960 12.535107 -4.755186 
8.735765 14.696122 15.934062 0.012387 -2.991333 -157.066345 15.906472 -2.440089 32.234177 36.594723 9.547375 -21.846674 -37.715973 0.048029 -0.017363 -30.663111 0.152800 -0.015258 -14.742547 -19.358828 -18.303648 -36.400379 -12.013803 4.081034 -26.752365 25.579248 5.413618 -15.545048 -6.309612 1.655651 28.260405 20.858950 -12.586889 39.323467 31.270136 15.077281 28.652172 -16.990732 4.770347 -33.370129 0.164244 -0.016932 -51.984550 16.543001 41.606075 158.277039 31.200623 -9.416852 37.547741 -12.290267 5.160080 -51.983154 -16.547773 -41.608501 158.271210 -31.197180 9.414127 37.547642 12.285816 -5.162246 
8.697592 14.690616 15.795140 0.012387 -2.991333 -157.066345 15.906472 -2.440089 32.234177 36.594723 9.547375 -21.846674 -37.430065 0.096187 -0.034501 -30.322968 0.305919 -0.029631 -14.804193 -19.821299 -18.820932 -35.540615 -11.707579 4.046125 -26.111912 25.054695 5.132630 -15.545046 -6.309611 1.655651 28.101923 21.068815 -12.227679 38.617088 31.346628 15.102585 28.675211 -16.735464 4.712914 -33.740421 0.328470 -0.034936 -51.902203 17.252941 41.795540 158.277802 31.343660 -9.509449 37.889645 -12.038357 5.565646 -51.900810 -17.257860 -41.798264 158.271912 -31.340214 9.506750 37.889530 12.033898 -5.567798 
8.659419 14.685108 15.656218 0.012387 -2.991333 -157.066345 15.906474 -2.440089 32.234177 36.594723 9.547375 -21.846674 -37.143909 0.144472 -0.051413 -29.982346 0.459349 -0.043114 -14.870587 -20.283968 -19.341106 -34.679543 -11.400001 4.015868 -25.475674 24.526232 4.858727 -15.545048 -6.309612 1.655651 27.941713 21.277849 -11.867145 37.908913 31.423525 15.126847 28.698496 -16.480160 4.655438 -34.110989 0.492667 -0.054012 -51.816914 17.963928 41.987198 158.278290 31.486715 -9.602194 38.229729 -11.783842 5.969683 -51.815491 -17.968981 -41.990185 158.272324 -31.483252 9.599518 38.229599 11.779380 -5.971820 
8.621246 14.679601 15.517296 0.012387 -2.991333 -157.066345 15.906472 -2.440089 32.234177 36.594727 9.547375 -21.846674 -36.857529 0.192884 -0.068099 -29.641256 0.613082 -0.055703 -14.941778 -20.746742 -19.864218 -33.817200 -11.091170 3.990294 -24.843597 23.993986 4.591877 -15.545046 -6.309611 1.655651 27.779783 21.486048 -11.505284 37.198975 31.500805 15.150055 28.722012 -16.224817 4.597916 -34.481804 0.656824 -0.074161 -51.728596 18.675888 42.181099 158.278503 31.629789 -9.695091 38.567982 -11.526757 6.372173 -51.727165 -18.681086 -42.184368 158.272461 -31.626303 9.692435 38.567833 11.522286 -6.374295 
8.583074 14.674094 15.378373 0.012387 -2.991333 -157.066360 15.906474 -2.440090 32.234177 36.594727 9.547375 -21.846674 -36.570919 0.241420 -0.084556 -29.299688 0.767109 -0.067393 -15.017833 -21.209560 -20.390327 -32.953655 -10.781192 3.969432 -24.215609 23.458071 4.332042 -15.545048 -6.309612 1.655651 27.616137 21.693394 -11.142101 36.487312 31.578447 15.172188 28.745773 -15.969447 4.540347 -34.852882 0.820930 -0.095384 -51.637207 19.388758 42.377327 158.278442 31.772861 -9.788135 38.904358 -11.267121 6.773094 -51.635738 -19.394096 -42.380890 158.272339 -31.769375 9.785508 38.904194 11.262646 -6.775202 
8.544901 14.668587 15.239450 0.012387 -2.991333 -157.066345 15.906471 -2.440089 32.234177 36.594719 9.547374 -21.846674 -36.284073 0.290078 -0.100784 -28.957663 0.921424 -0.078179 -15.098815 -21.672340 -20.919498 -32.088963 -10.470167 3.953310 -23.591648 22.918600 4.079186 -15.545046 -6.309610 1.655651 27.450756 21.899855 -10.777585 35.773987 31.656448 15.193238 28.769781 -15.714047 4.482728 -35.224224 0.984975 -0.117681 -51.542641 20.102461 42.575958 158.278122 31.915958 -9.881331 39.238865 -11.004971 7.172432 -51.541149 -20.107943 -42.579803 158.271957 -31.912458 9.878730 39.238682 11.000490 -7.174526 
